<svg viewBox="0 0 100 100" xmlns="http://www.w3.org/2000/svg">
  <!-- Outer circle -->
  <circle cx="50" cy="50" r="46" fill="none" stroke="#0f4c28" stroke-width="1.5" />
  
  <!-- Top Sun Element -->
  <circle cx="50" cy="27" r="9" fill="#0f4c28" />
  
  <!-- Left Leaf -->
  <path d="M 44.5,60 C 26,60 22,35 44.5,35 C 44.5,35 38,50 44.5,60 Z" fill="#0f4c28" transform="rotate(-15, 44.5, 60)" />
  <!-- Left Leaf Inner Line -->
  <path d="M 44.5,60 C 37,50 32,45 44.5,38" fill="none" stroke="white" stroke-width="1" transform="rotate(-15, 44.5, 60)" />
  
  <!-- Right Leaf -->
  <path d="M 55.5,60 C 74,60 78,35 55.5,35 C 55.5,35 62,50 55.5,60 Z" fill="#0f4c28" transform="rotate(15, 55.5, 60)" />
  <!-- Right Leaf Inner Line -->
  <path d="M 55.5,60 C 63,50 68,45 55.5,38" fill="none" stroke="white" stroke-width="1" transform="rotate(15, 55.5, 60)" />
  
  <!-- Bottom lines -->
  <line x1="16" y1="67" x2="84" y2="67" stroke="#0f4c28" stroke-width="1.5" />
  <line x1="20" y1="71" x2="80" y2="71" stroke="#0f4c28" stroke-width="1.5" />
  
  <!-- Bottom filled piece -->
  <path d="M 23,76 A 46,46 0 0,0 77,76 Z" fill="#0f4c28" />
</svg>
